<svg fill="none" height="24" viewBox="0 0 24 24" width="24" xmlns="http://www.w3.org/2000/svg"><path clip-rule="evenodd" d="m4.75 4.5c-1.24264 0-2.25 1.00736-2.25 2.25v1c0 1.24264 1.00736 2.25 2.25 2.25h1c1.15814 0 2.11191-.87501 2.23627-2h1.83288c.96645 0 1.74995.7835 1.74995 1.75v4.5c0 1.7949 1.4551 3.25 3.2501 3.25h1.1945c.1244 1.125 1.0782 2 2.2363 2h1c1.2426 0 2.25-1.0074 2.25-2.25v-1c0-1.2426-1.0074-2.25-2.25-2.25h-1c-1.1581 0-2.1119.875-2.2363 2h-1.1945c-.9665 0-1.7501-.7835-1.7501-1.75v-4.5c0-1.79493-1.455-3.25-3.24995-3.25h-1.83288c-.12436-1.12499-1.07813-2-2.23627-2zm-.75 2.25c0-.41421.33579-.75.75-.75h1c.41421 0 .75.33579.75.75v1c0 .41421-.33579.75-.75.75h-1c-.41421 0-.75-.33579-.75-.75zm14.25 8.75c-.4142 0-.75.3358-.75.75v1c0 .4142.3358.75.75.75h1c.4142 0 .75-.3358.75-.75v-1c0-.4142-.3358-.75-.75-.75z" fill="#000001" fill-rule="evenodd"/></svg>